<?xml version="1.0" encoding="iso-8859-1"?>
<!-- Generator: Adobe Illustrator 19.0.0, SVG Export Plug-In . SVG Version: 6.00 Build 0)  -->
<svg xmlns="http://www.w3.org/2000/svg" xmlns:xlink="http://www.w3.org/1999/xlink" version="1.1" id="Capa_1" x="0px" y="0px" viewBox="0 0 511.994 511.994" style="enable-background:new 0 0 511.994 511.994;" xml:space="preserve" width="512px" height="512px">
<g>
	<g>
		<path d="M301.028,92.795V0h-90.052v92.795c-43.724,6.817-77.581,43.815-79.534,88.949h249.121    C378.608,136.611,344.751,99.612,301.028,92.795z" fill="#006DF0"/>
	</g>
</g>
<g>
	<g>
		<rect x="111.326" y="211.749" width="289.342" height="60.052" fill="#006DF0"/>
	</g>
</g>
<g>
	<g>
		
			<rect x="363.671" y="470.239" transform="matrix(0.9808 -0.1951 0.1951 0.9808 -87.3944 83.2026)" width="30.002" height="30.022" fill="#006DF0"/>
	</g>
</g>
<g>
	<g>
		
			<rect x="351.959" y="411.343" transform="matrix(0.9808 -0.1951 0.1951 0.9808 -76.1292 79.7861)" width="30.002" height="30.022" fill="#006DF0"/>
	</g>
</g>
<g>
	<g>
		
			<rect x="340.246" y="352.456" transform="matrix(0.9808 -0.1951 0.1951 0.9808 -64.8655 76.3694)" width="30.002" height="30.022" fill="#006DF0"/>
	</g>
</g>
<g>
	<g>
		
			<rect x="328.523" y="293.551" transform="matrix(0.9808 -0.1951 0.1951 0.9808 -53.5985 72.9503)" width="30.002" height="30.022" fill="#006DF0"/>
	</g>
</g>
<g>
	<g>
		
			<rect x="281.868" y="481.51" transform="matrix(0.9978 -0.0662 0.0662 0.9978 -32.2018 20.7415)" width="30.001" height="29.512" fill="#006DF0"/>
	</g>
</g>
<g>
	<g>
		
			<rect x="277.958" y="422.636" transform="matrix(0.9978 -0.0661 0.0661 0.9978 -28.2714 20.3215)" width="30.001" height="29.513" fill="#006DF0"/>
	</g>
</g>
<g>
	<g>
		
			<rect x="274.079" y="363.726" transform="matrix(0.9978 -0.0662 0.0662 0.9978 -24.4216 19.9674)" width="30.001" height="29.513" fill="#006DF0"/>
	</g>
</g>
<g>
	<g>
		
			<rect x="270.177" y="304.824" transform="matrix(0.9978 -0.0662 0.0662 0.9978 -20.5308 19.5799)" width="30.001" height="29.512" fill="#006DF0"/>
	</g>
</g>
<g>
	<g>
		
			<rect x="200.38" y="481.276" transform="matrix(0.0662 -0.9978 0.9978 0.0662 -294.2941 678.088)" width="29.512" height="30.001" fill="#006DF0"/>
	</g>
</g>
<g>
	<g>
		
			<rect x="204.246" y="422.407" transform="matrix(0.0661 -0.9978 0.9978 0.0661 -231.9251 627.0178)" width="29.513" height="30.001" fill="#006DF0"/>
	</g>
</g>
<g>
	<g>
		
			<rect x="208.179" y="363.485" transform="matrix(0.0662 -0.9978 0.9978 0.0662 -169.4775 575.8771)" width="29.513" height="30.001" fill="#006DF0"/>
	</g>
</g>
<g>
	<g>
		
			<rect x="212.08" y="304.595" transform="matrix(0.0662 -0.9978 0.9978 0.0662 -107.0754 524.7754)" width="29.512" height="30.001" fill="#006DF0"/>
	</g>
</g>
<g>
	<g>
		
			<rect x="118.336" y="470.243" transform="matrix(0.1951 -0.9808 0.9808 0.1951 -368.5879 521.3583)" width="30.022" height="30.002" fill="#006DF0"/>
	</g>
</g>
<g>
	<g>
		
			<rect x="130.05" y="411.353" transform="matrix(0.1951 -0.9808 0.9808 0.1951 -301.401 485.4468)" width="30.022" height="30.002" fill="#006DF0"/>
	</g>
</g>
<g>
	<g>
		
			<rect x="141.766" y="352.455" transform="matrix(0.1951 -0.9808 0.9808 0.1951 -234.205 449.5306)" width="30.022" height="30.002" fill="#006DF0"/>
	</g>
</g>
<g>
	<g>
		
			<rect x="153.48" y="293.566" transform="matrix(0.1951 -0.9808 0.9808 0.1951 -167.0179 413.6196)" width="30.022" height="30.002" fill="#006DF0"/>
	</g>
</g>
<g>
</g>
<g>
</g>
<g>
</g>
<g>
</g>
<g>
</g>
<g>
</g>
<g>
</g>
<g>
</g>
<g>
</g>
<g>
</g>
<g>
</g>
<g>
</g>
<g>
</g>
<g>
</g>
<g>
</g>
</svg>
